<svg xmlns="http://www.w3.org/2000/svg" enable-background="new 0 0 40 40" viewBox="0 0 40 40" id="oppo">
  <switch>
    <g>
      <path fill="#009f68" d="M7.7,17.5c-2,0-3.7,0.8-3.7,1.8c0,1,1.6,1.8,3.7,1.8c2,0,3.7-0.8,3.7-1.8
			C11.4,18.3,9.7,17.5,7.7,17.5L7.7,17.5z M7.3,20.7c-0.7,0-2.5-0.3-2.5-1.3c0-0.7,1.1-1.3,2.5-1.3c1.4,0,2.5,0.6,2.5,1.3
			C9.8,20,8.7,20.7,7.3,20.7L7.3,20.7z M32.3,17.5c-2,0-3.7,0.8-3.7,1.8c0,1,1.6,1.8,3.7,1.8c2,0,3.7-0.8,3.7-1.8
			C36,18.3,34.4,17.5,32.3,17.5L32.3,17.5z M31.9,20.7c-0.7,0-2.5-0.3-2.5-1.3c0-0.7,1.1-1.3,2.5-1.3c1.4,0,2.5,0.6,2.5,1.3
			C34.4,20,33.3,20.7,31.9,20.7L31.9,20.7z M16,17.5c2,0,3.7,0.8,3.7,1.8c0,1-1.7,1.8-3.7,1.8c-1,0-1.9-0.2-2.6-0.5v1.8h-1.3v-4.9
			h1.3V20c0.4,0.4,1.3,0.7,2.2,0.7c1.4,0,2.5-0.6,2.5-1.3c0-0.7-1.1-1.3-2.5-1.3c-0.5,0-0.9,0.1-1.3,0.2v-0.5
			C14.8,17.6,15.4,17.5,16,17.5L16,17.5z M24.3,17.5c2,0,3.7,0.8,3.7,1.8c0,1-1.7,1.8-3.7,1.8c-1,0-1.9-0.2-2.6-0.5v1.8h-1.3v-4.9
			h1.3V20c0.4,0.4,1.3,0.7,2.2,0.7c1.4,0,2.5-0.6,2.5-1.3c0-0.7-1.1-1.3-2.5-1.3c-0.5,0-0.9,0.1-1.3,0.2v-0.5
			C23.1,17.6,23.7,17.5,24.3,17.5L24.3,17.5z"></path>
    </g>
  </switch>
</svg>
