<svg xmlns="http://www.w3.org/2000/svg" width="80" height="60" viewBox="0 0 80 60">
  <g>
    <path d="M19.3,5.6H72.1a4.2,4.2,0,0,1,4.2,4.2V19.4a0,0,0,0,1,0,0H15.1a0,0,0,0,1,0,0V9.8A4.2,4.2,0,0,1,19.3,5.6Z" style="fill:#3d8cff;"/>
    <path d="M76.2,54.9V21.8H3.8V50.7a4.2,4.2,0,0,0,4.2,4.2H72.1A4.2,4.2,0,0,0,76.2,50.7Z" style="fill:#3d8cff;"/>
    <path d="M7.9,19.4H76.2a0,0,0,0,1,0,0v3.6a4.2,4.2,0,0,1-4.2,4.2H12.1a4.2,4.2,0,0,1-4.2-4.2V19.4A0,0,0,0,1,7.9,19.4Z" style="fill:#fff;"/>
    <path d="M12.1,27.3a4.2,4.2,0,0,1-4.2-4.2V19.4H24.3l4.2,7.9Z" style="fill:#e6e6e6;"/>
    <rect x="30.5" y="38" width="19" height="4" rx="2" style="fill:#377de6;"/>
  </g>
</svg>